# Alias OBJ Model File
# Exported from SketchUp, (c) 2000-2006 Google, Inc.
# File units = inches

mtllib rondje.mtl

g Mesh1 Model

usemtl FrontColor
v -43.058 5 11.5374
vt -43.058 -11.5374
vn 0 1 -0
v -43.058 5 -11.5374
vt -43.058 11.5374
v -44.577 5 -3.55271e-015
vt -44.577 3.55271e-015
f 1/1/1 2/2/1 3/3/1

v -38.6048 5 22.2885
vt -38.6048 -22.2885
f 2/2/1 1/1/1 4/4/1

vt 5.81846 5
vn -0.866025 0 0.5
vt -5.81846 5
vn -0.965926 0 0.258819
v -43.058 -5 11.5374
vt -5.81846 -5
v -38.6048 -5 22.2885
vt 5.81846 -5
f 4/5/2 1/6/3 5/7/3 6/8/2 

vt 5.81846 5
vt -5.81846 5
vn -1 0 -4.05929e-016
v -44.577 -5 -3.55271e-015
vt -5.81846 -5
vt 5.81846 -5
f 1/9/3 3/10/4 7/11/4 5/12/3 

vt 5.81846 5
vt -5.81846 5
vn -0.965926 0 -0.258819
v -43.058 -5 -11.5374
vt -5.81846 -5
vt 5.81846 -5
f 3/13/4 2/14/5 8/15/5 7/16/4 

vt 5.81846 5
v -38.6048 5 -22.2885
vt -5.81846 5
vn -0.866025 0 -0.5
v -38.6048 -5 -22.2885
vt -5.81846 -5
vt 5.81846 -5
f 2/17/5 9/18/6 10/19/6 8/20/5 

vt -38.6048 22.2885
f 2/2/1 4/4/1 9/21/1

v -31.5207 5 31.5207
vt -31.5207 -31.5207
f 9/21/1 4/4/1 11/22/1

vn -0.707107 0 0.707107
vt -5.81846 5
vt -5.81846 -5
v -31.5207 -5 31.5207
f 11/13/7 4/23/2 6/24/2 12/16/7 

vt 38.6048 -22.2885
vn 0 -1 -0
vt 38.6048 22.2885
vt 31.5207 -31.5207
f 6/25/8 10/26/8 12/27/8

vt 43.058 11.5374
f 6/25/8 8/28/8 10/26/8

vt 43.058 -11.5374
f 5/29/8 8/28/8 6/25/8

vt 44.577 3.55271e-015
f 8/28/8 5/29/8 7/30/8

v -33.2309 -5 -1.29514e-014
vt 33.2309 1.29514e-014
f 12/27/8 10/26/8 13/31/8

v -31.5207 -5 -31.5207
vt 31.5207 31.5207
f 14/32/8 13/31/8 10/26/8

v -32.0986 -5 -8.60079
vt 32.0986 8.60079
f 13/31/8 14/32/8 15/33/8

v -28.7788 -5 -16.6155
vt 28.7788 16.6155
f 15/33/8 14/32/8 16/34/8

v -22.2885 -5 -38.6048
vt 22.2885 38.6048
f 16/34/8 14/32/8 17/35/8

v -31.5207 5 -31.5207
vt 5.81846 5
vn -0.707107 0 -0.707107
v -22.2885 5 -38.6048
vt -5.81846 5
vn -0.5 0 -0.866025
vt -5.81846 -5
vt 5.81846 -5
f 18/36/9 19/37/10 17/38/10 14/39/9 

vt -31.5207 31.5207
v -28.7788 5 -16.6155
vt -28.7788 16.6155
vt -22.2885 38.6048
f 18/40/1 20/41/1 19/42/1

v -32.0986 5 -8.60079
vt -32.0986 8.60079
f 18/40/1 21/43/1 20/41/1

v -33.2309 5 -1.29514e-014
vt -33.2309 1.29514e-014
f 18/40/1 22/44/1 21/43/1

f 22/44/1 18/40/1 9/21/1

vt 5.81846 5
vt -5.81846 5
vt -5.81846 -5
vt 5.81846 -5
f 9/45/6 18/46/9 14/47/9 10/48/6 

f 9/21/1 11/22/1 22/44/1

v -32.0986 5 8.60079
vt -32.0986 -8.60079
f 22/44/1 11/22/1 23/49/1

v -28.7788 5 16.6155
vt -28.7788 -16.6155
f 23/49/1 11/22/1 24/50/1

v -22.2885 5 38.6048
vt -22.2885 -38.6048
f 24/50/1 11/22/1 25/51/1

vt 5.81846 5
vn -0.5 0 0.866025
vt -5.81846 5
vt -5.81846 -5
v -22.2885 -5 38.6048
vt 5.81846 -5
f 25/52/11 11/53/7 12/54/7 26/55/11 

v -28.7788 -5 16.6155
vt 28.7788 -16.6155
vt 22.2885 -38.6048
f 12/27/8 27/56/8 26/57/8

v -32.0986 -5 8.60079
vt 32.0986 -8.60079
f 12/27/8 28/58/8 27/56/8

f 12/27/8 13/31/8 28/58/8

vt 4.3375 5
vn 1 0 2.93948e-016
vt -4.3375 5
vn 0.965926 0 -0.258819
vt -4.3375 -5
vt 4.3375 -5
f 22/59/12 23/60/13 28/61/13 13/62/12 

vt 4.3375 5
vt -4.3375 5
vn 0.866025 0 -0.5
vt -4.3375 -5
vt 4.3375 -5
f 23/63/13 24/64/14 27/65/14 28/66/13 

vt 4.3375 5
v -23.4978 5 23.4978
vn 0.707107 0 -0.707107
v -23.4978 -5 23.4978
vt 4.3375 -5
f 24/67/14 29/60/15 30/61/15 27/68/14 

vt -23.4978 -23.4978
f 24/50/1 25/51/1 29/69/1

v -16.6155 5 28.7788
vt -16.6155 -28.7788
f 29/69/1 25/51/1 31/70/1

v -11.5374 5 43.058
vt -11.5374 -43.058
f 31/70/1 25/51/1 32/71/1

vt 5.81846 5
vn -0.258819 0 0.965926
vt -5.81846 5
vt -5.81846 -5
v -11.5374 -5 43.058
vt 5.81846 -5
f 32/72/16 25/73/11 26/74/11 33/75/16 

v -16.6155 -5 28.7788
vt 16.6155 -28.7788
vt 11.5374 -43.058
f 26/57/8 34/76/8 33/77/8

vt 23.4978 -23.4978
f 26/57/8 30/78/8 34/76/8

f 26/57/8 27/56/8 30/78/8

vt 4.3375 5
vt -4.3375 5
vn 0.5 0 -0.866025
vt -4.3375 -5
vt 4.3375 -5
f 29/79/15 31/80/17 34/81/17 30/82/15 

vt 4.3375 5
v -8.60079 5 32.0986
vt -4.3375 5
vn 0.258819 0 -0.965926
v -8.60079 -5 32.0986
vt -4.3375 -5
vt 4.3375 -5
f 31/83/17 35/84/18 36/85/18 34/86/17 

vt -8.60079 -32.0986
f 31/70/1 32/71/1 35/87/1

v -6.28227e-015 5 44.577
vt -6.28227e-015 -44.577
f 35/87/1 32/71/1 37/88/1

vt 5.81846 5
vn -2.51956e-016 0 1
vt -5.81846 5
vt -5.81846 -5
v -6.28227e-015 -5 44.577
vt 5.81846 -5
f 37/89/19 32/90/16 33/91/16 38/92/19 

vt 8.60079 -32.0986
vt 6.28227e-015 -44.577
f 33/77/8 36/93/8 38/94/8

f 33/77/8 34/76/8 36/93/8

v -1.49862e-014 -5 33.2309
vt 1.49862e-014 -33.2309
f 38/94/8 36/93/8 39/95/8

vt 4.3375 5
v -1.49862e-014 5 33.2309
vn 5.87897e-016 0 -1
vt 4.3375 -5
f 35/96/18 40/80/20 39/81/20 36/97/18 

vt -1.49862e-014 -33.2309
f 35/87/1 37/88/1 40/98/1

v 8.60079 5 32.0986
vt 8.60079 -32.0986
f 40/98/1 37/88/1 41/99/1

v 11.5374 5 43.058
vt 11.5374 -43.058
f 41/99/1 37/88/1 42/100/1

vt 5.81846 5
vn 0.258819 0 0.965926
vt -5.81846 5
vt -5.81846 -5
v 11.5374 -5 43.058
vt 5.81846 -5
f 42/101/21 37/102/19 38/103/19 43/104/21 

v 8.60079 -5 32.0986
vt -8.60079 -32.0986
vt -11.5374 -43.058
f 38/94/8 44/105/8 43/106/8

f 38/94/8 39/95/8 44/105/8

vt 4.3375 5
vn -0.258819 0 -0.965926
vt 4.3375 -5
f 40/107/20 41/64/22 44/65/22 39/108/20 

vt 4.3375 5
v 16.6155 5 28.7788
vt -4.3375 5
vn -0.5 0 -0.866025
v 16.6155 -5 28.7788
vt -4.3375 -5
vt 4.3375 -5
f 41/109/22 45/110/23 46/111/23 44/112/22 

vt 16.6155 -28.7788
f 41/99/1 42/100/1 45/113/1

v 22.2885 5 38.6048
vt 22.2885 -38.6048
f 45/113/1 42/100/1 47/114/1

vt 5.81846 5
vn 0.5 0 0.866025
vt -5.81846 5
vt -5.81846 -5
v 22.2885 -5 38.6048
vt 5.81846 -5
f 47/115/24 42/116/21 43/117/21 48/118/24 

vt -16.6155 -28.7788
vt -22.2885 -38.6048
f 43/106/8 46/119/8 48/120/8

f 43/106/8 44/105/8 46/119/8

v 23.4978 -5 23.4978
vt -23.4978 -23.4978
f 48/120/8 46/119/8 49/121/8

vt 4.3375 5
v 23.4978 5 23.4978
vt -4.3375 5
vt -4.3375 -5
vt 4.3375 -5
f 45/122/23 50/123/9 49/124/9 46/125/23 

vt 23.4978 -23.4978
f 45/113/1 47/114/1 50/126/1

v 31.5207 5 31.5207
vt 31.5207 -31.5207
f 50/126/1 47/114/1 51/127/1

vn 0.707107 0 0.707107
vt -5.81846 5
vt -5.81846 -5
v 31.5207 -5 31.5207
f 51/9/25 47/128/24 48/129/24 52/12/25 

vt -31.5207 -31.5207
f 48/120/8 49/121/8 52/130/8

v 28.7788 -5 16.6155
vt -28.7788 -16.6155
f 52/130/8 49/121/8 53/131/8

vt 4.3375 5
v 28.7788 5 16.6155
vt -4.3375 5
vn -0.866025 0 -0.5
vt -4.3375 -5
vt 4.3375 -5
f 50/132/9 54/133/26 53/134/26 49/135/9 

vt 28.7788 -16.6155
f 50/126/1 51/127/1 54/136/1

v 32.0986 5 8.60079
vt 32.0986 -8.60079
f 54/136/1 51/127/1 55/137/1

v 38.6048 5 22.2885
vt 38.6048 -22.2885
f 55/137/1 51/127/1 56/138/1

vt 5.81846 5
vn 0.866025 0 0.5
vt -5.81846 5
vt -5.81846 -5
v 38.6048 -5 22.2885
vt 5.81846 -5
f 56/139/27 51/140/25 52/141/25 57/142/27 

v 32.0986 -5 8.60079
vt -32.0986 -8.60079
vt -38.6048 -22.2885
f 52/130/8 58/143/8 57/144/8

f 52/130/8 53/131/8 58/143/8

vt -4.3375 5
vn -0.965926 0 -0.258819
vt -4.3375 -5
f 54/83/26 55/145/28 58/146/28 53/86/26 

vt 4.3375 5
v 33.2309 5 8.88178e-015
vt -4.3375 5
vn -1 0 -1.95966e-016
v 33.2309 -5 8.88178e-015
vt -4.3375 -5
vt 4.3375 -5
f 55/147/28 59/148/29 60/149/29 58/150/28 

vt 33.2309 -8.88178e-015
f 55/137/1 56/138/1 59/151/1

v 38.6048 5 -22.2885
vt 38.6048 22.2885
f 61/152/1 59/151/1 56/138/1

v 32.0986 5 -8.60079
vt 32.0986 8.60079
f 61/152/1 62/153/1 59/151/1

v 31.5207 5 -31.5207
vt 31.5207 31.5207
f 63/154/1 62/153/1 61/152/1

v 28.7788 5 -16.6155
vt 28.7788 16.6155
f 63/154/1 64/155/1 62/153/1

v 23.4978 5 -23.4978
vt 23.4978 23.4978
f 63/154/1 65/156/1 64/155/1

v 22.2885 5 -38.6048
vt 22.2885 38.6048
f 66/157/1 65/156/1 63/154/1

v 16.6155 5 -28.7788
vt 16.6155 28.7788
f 66/157/1 67/158/1 65/156/1

v 11.5374 5 -43.058
vt 11.5374 43.058
f 68/159/1 67/158/1 66/157/1

v 8.60079 5 -32.0986
vt 8.60079 32.0986
f 68/159/1 69/160/1 67/158/1

v 1.17414e-014 5 -44.577
vt 1.17414e-014 44.577
f 70/161/1 69/160/1 68/159/1

v 1.09166e-014 5 -33.2309
vt 1.09166e-014 33.2309
f 70/161/1 71/162/1 69/160/1

v -8.60079 5 -32.0986
vt -8.60079 32.0986
f 70/161/1 72/163/1 71/162/1

v -11.5374 5 -43.058
vt -11.5374 43.058
f 73/164/1 72/163/1 70/161/1

v -16.6155 5 -28.7788
vt -16.6155 28.7788
f 73/164/1 74/165/1 72/163/1

f 19/42/1 74/165/1 73/164/1

v -23.4978 5 -23.4978
vt -23.4978 23.4978
f 19/42/1 75/166/1 74/165/1

f 19/42/1 20/41/1 75/166/1

vt 4.3375 5
vn 0.707107 0 0.707107
vn 0.866025 0 0.5
v -23.4978 -5 -23.4978
vt 4.3375 -5
f 75/167/30 20/64/31 16/65/31 76/168/30 

vt 4.3375 5
vt -4.3375 5
vn 0.965926 0 0.258819
vt -4.3375 -5
vt 4.3375 -5
f 20/169/31 21/170/32 15/171/32 16/172/31 

vt 4.3375 5
vt -4.3375 5
vt -4.3375 -5
vt 4.3375 -5
f 21/173/32 22/174/12 13/175/12 15/176/32 

vt 23.4978 23.4978
f 16/34/8 17/35/8 76/177/8

v -16.6155 -5 -28.7788
vt 16.6155 28.7788
f 76/177/8 17/35/8 77/178/8

v -11.5374 -5 -43.058
vt 11.5374 43.058
f 77/178/8 17/35/8 78/179/8

vt 5.81846 5
vn -0.258819 0 -0.965926
vt 5.81846 -5
f 19/180/10 73/37/33 78/38/33 17/181/10 

vt 5.81846 5
vt -5.81846 5
vn 3.91931e-016 0 -1
v 1.17414e-014 -5 -44.577
vt -5.81846 -5
vt 5.81846 -5
f 73/182/33 70/183/34 79/184/34 78/185/33 

vt 5.81846 5
vt -5.81846 5
vn 0.258819 0 -0.965926
v 11.5374 -5 -43.058
vt -5.81846 -5
vt 5.81846 -5
f 70/186/34 68/187/35 80/188/35 79/189/34 

vt -5.81846 5
vn 0.5 0 -0.866025
v 22.2885 -5 -38.6048
vt -5.81846 -5
f 68/180/35 66/190/36 81/191/36 80/181/35 

vt 5.81846 5
v 31.5207 -5 -31.5207
vt 5.81846 -5
f 66/192/36 63/37/15 82/38/15 81/193/36 

vn 0.866025 0 -0.5
v 38.6048 -5 -22.2885
f 63/192/15 61/23/37 83/24/37 82/193/15 

v 43.058 5 -11.5374
vt -5.81846 5
vn 0.965926 0 -0.258819
v 43.058 -5 -11.5374
vt -5.81846 -5
f 61/9/37 84/194/38 85/195/38 83/12/37 

v 43.058 5 11.5374
vt 43.058 -11.5374
vt 43.058 11.5374
f 61/152/1 86/196/1 84/197/1

f 61/152/1 56/138/1 86/196/1

vt 5.81846 5
vn 0.965926 0 0.258819
vt -5.81846 5
vt -5.81846 -5
v 43.058 -5 11.5374
vt 5.81846 -5
f 86/198/39 56/199/27 57/200/27 87/201/39 

vt -38.6048 22.2885
vt -43.058 -11.5374
f 57/144/8 83/202/8 87/203/8

vt -33.2309 -8.88178e-015
f 60/204/8 83/202/8 57/144/8

v 32.0986 -5 -8.60079
vt -32.0986 8.60079
f 88/205/8 83/202/8 60/204/8

vt -31.5207 31.5207
f 88/205/8 82/206/8 83/202/8

v 28.7788 -5 -16.6155
vt -28.7788 16.6155
f 89/207/8 82/206/8 88/205/8

v 23.4978 -5 -23.4978
vt -23.4978 23.4978
f 90/208/8 82/206/8 89/207/8

vt -22.2885 38.6048
f 90/208/8 81/209/8 82/206/8

v 16.6155 -5 -28.7788
vt -16.6155 28.7788
f 91/210/8 81/209/8 90/208/8

vt -11.5374 43.058
f 91/210/8 80/211/8 81/209/8

v 8.60079 -5 -32.0986
vt -8.60079 32.0986
f 92/212/8 80/211/8 91/210/8

vt -1.17414e-014 44.577
f 92/212/8 79/213/8 80/211/8

v 1.09166e-014 -5 -33.2309
vt -1.09166e-014 33.2309
f 93/214/8 79/213/8 92/212/8

v -8.60079 -5 -32.0986
vt 8.60079 32.0986
f 94/215/8 79/213/8 93/214/8

f 94/215/8 78/179/8 79/213/8

f 77/178/8 78/179/8 94/215/8

vn 0.258819 0 0.965926
vt -4.3375 5
vn 0.5 0 0.866025
vt -4.3375 -5
f 72/109/40 74/216/41 77/217/41 94/112/40 

vt 4.3375 5
vt -4.3375 5
vt -4.3375 -5
vt 4.3375 -5
f 74/218/41 75/219/30 76/220/30 77/221/41 

vt 4.3375 5
vn 5.59902e-017 0 1
vt -4.3375 5
vt -4.3375 -5
vt 4.3375 -5
f 71/222/42 72/223/40 94/224/40 93/225/42 

vt 4.3375 5
vn -0.258819 0 0.965926
vt -4.3375 5
vt -4.3375 -5
vt 4.3375 -5
f 69/226/43 71/227/42 93/228/42 92/229/43 

vn -0.5 0 0.866025
vt -4.3375 5
vt -4.3375 -5
f 67/169/44 69/230/43 92/231/43 91/172/44 

vt 4.3375 5
vn -0.707107 0 0.707107
vt 4.3375 -5
f 65/232/45 67/216/44 91/217/44 90/233/45 

vn -0.866025 0 0.5
f 64/83/46 65/230/45 90/231/45 89/86/46 

vt 4.3375 5
vn -0.965926 0 0.258819
vt 4.3375 -5
f 62/234/47 64/84/46 89/85/46 88/235/47 

vt 4.3375 5
vt -4.3375 5
vt -4.3375 -5
vt 4.3375 -5
f 59/236/29 62/237/47 88/238/47 60/239/29 

f 57/144/8 58/143/8 60/204/8

vt -43.058 11.5374
f 87/203/8 83/202/8 85/240/8

v 44.577 -5 9.01182e-015
vt -44.577 -9.01182e-015
f 87/203/8 85/240/8 95/241/8

v 44.577 5 9.01182e-015
vt -5.81846 5
vn 1 0 1.95966e-016
vt -5.81846 -5
f 84/198/38 96/242/48 95/243/48 85/201/38 

vt 44.577 -9.01182e-015
f 84/197/1 86/196/1 96/244/1

vt -5.81846 5
vt -5.81846 -5
f 96/101/48 86/245/39 87/246/39 95/104/48 

