# Alias OBJ Model File
# Exported from SketchUp, (c) 2000-2006 Google, Inc.
# File units = inches

mtllib vierkantje.mtl

g Mesh1 Model

usemtl FrontColor
v -55.923 -5 -55.75
vt 55.923 55.75
vn 0 -1 -0
v -44.577 -5 -44.75
vt 44.577 44.75
v -55.923 -5 -7.10543e-015
vt 55.923 7.10543e-015
f 1/1/1 2/2/1 3/3/1

v 55.577 -5 -55.75
vt -55.577 55.75
f 2/2/1 1/1/1 4/4/1

vt -55.577 -5
vn 0 0 -1
vt 55.923 -5
v -55.923 5 -55.75
vt 55.923 5
v 55.577 5 -55.75
vt -55.577 5
f 4/5/2 1/6/2 5/7/2 6/8/2 

vt -55.75 -5
vn -1 0 -0
vt -7.10543e-015 -5
v -55.923 -5 55.75
vt 55.75 -5
v -55.923 5 55.75
vt 55.75 5
vt -55.75 5
f 1/9/3 3/10/3 7/11/3 8/12/3 5/13/3 

vt 55.923 -55.75
f 3/3/1 2/2/1 7/14/1

v -44.577 -5 44.75
vt 44.577 -44.75
f 9/15/1 7/14/1 2/2/1

v 55.577 -5 55.75
vt -55.577 -55.75
f 7/14/1 9/15/1 10/16/1

v 44.577 -5 44.75
vt -44.577 -44.75
f 10/16/1 9/15/1 11/17/1

vt -44.577 -5
vt 44.577 -5
v -44.577 5 44.75
vt 44.577 5
v 44.577 5 44.75
vt -44.577 5
f 11/18/2 9/19/2 12/20/2 13/21/2 

vt -44.75 -5
vn 1 0 -0
vt 44.75 -5
v -44.577 5 -44.75
vt 44.75 5
vt -44.75 5
f 9/22/4 2/23/4 14/24/4 12/25/4 

vn 0 0 1
v 44.577 -5 -44.75
v 44.577 5 -44.75
f 14/21/5 2/18/5 15/19/5 16/20/5 

vt -44.577 44.75
f 2/2/1 4/4/1 15/26/1

f 15/26/1 4/4/1 11/17/1

f 10/16/1 11/17/1 4/4/1

vt -55.75 -5
vt 55.75 -5
vt 55.75 5
v 55.577 5 55.75
vt -55.75 5
f 10/27/4 4/28/4 6/29/4 17/30/4 

vt 55.577 55.75
vn 0 1 -0
vt 55.577 -55.75
f 6/31/6 16/2/6 17/32/6

f 6/31/6 14/26/6 16/2/6

vt -55.923 55.75
f 5/33/6 14/26/6 6/31/6

f 14/26/6 5/33/6 12/17/6

vt -55.923 -55.75
f 8/34/6 12/17/6 5/33/6

f 12/17/6 8/34/6 17/32/6

vt -55.923 -5
vt 55.577 -5
vt 55.577 5
vt -55.923 5
f 7/35/5 10/36/5 17/37/5 8/38/5 

f 12/17/6 17/32/6 13/15/6

f 13/15/6 17/32/6 16/2/6

vt -44.75 -5
vt 44.75 -5
vt 44.75 5
vt -44.75 5
f 15/39/3 11/40/3 13/41/3 16/42/3 

